<svg xmlns="http://www.w3.org/2000/svg" width="16" height="16"><g fill="#2472A6"><path d="M11.7 10c-.1 0-.2 0-.3-.1-.2-.2-.2-.5 0-.7l1.7-1.7c.6-.6 1-1.4 1-2.3C14 3.4 12.6 2 10.8 2c-.9 0-1.7.3-2.3 1L6.8 4.6c-.2.2-.5.2-.7 0-.2-.2-.2-.5 0-.7l1.7-1.7c.8-.8 1.9-1.2 3-1.2C13.1 1 15 2.9 15 5.2c0 1.1-.4 2.2-1.2 3l-1.7 1.7c-.1.1-.2.1-.4.1zM5.2 15C2.9 15 1 13.1 1 10.8c0-1.1.4-2.2 1.2-3l1.7-1.7c.2-.2.5-.2.7 0 .2.2.2.5 0 .7L2.9 8.5c-.6.6-1 1.4-1 2.3C2 12.6 3.4 14 5.2 14c.9 0 1.7-.3 2.3-1l1.7-1.7c.2-.2.5-.2.7 0 .2.2.2.5 0 .7l-1.7 1.7c-.8.9-1.9 1.3-3 1.3z"/><path d="M5.5 11c-.1 0-.2 0-.3-.1-.2-.2-.2-.5 0-.7l5.1-5.1c.2-.2.5-.2.7 0 .2.2.2.5 0 .7l-5.1 5.1c-.2.1-.3.1-.4.1z"/></g></svg>